<?xml version="1.0" encoding="utf-8"?>
<!-- Generator: Adobe Illustrator 21.1.0, SVG Export Plug-In . SVG Version: 6.00 Build 0)  -->
<svg version="1.1" id="Capa_1" xmlns="http://www.w3.org/2000/svg" xmlns:xlink="http://www.w3.org/1999/xlink" x="0px" y="0px"
	 viewBox="0 0 99.2 113.4" style="enable-background:new 0 0 99.2 113.4;" xml:space="preserve">
<style type="text/css">
	.st0{fill:#2A5E8A;}
</style>
<g>
	<path class="st0" d="M77.2,10.3c-2.9-0.4-5.1-0.7-6.6-0.9C70.2,9.3,70,9,70.1,8.6c0-0.4,0.2-0.6,0.7-0.6l2.4,0.2
		c1.6,0.1,2.8,0,3.8-0.4c0.4-0.1,0.7,0,1,0.2s0.5,0.5,0.5,0.9C78.5,9.9,78.1,10.4,77.2,10.3z M77.7,18.4c-0.2,0.6-0.7,0.9-1.5,0.8
		l-3.8-0.6c-1.4-0.2-3.2-0.2-5.3-0.1c-3.6,0.1-5.4,0.1-5.5,0.1c0.2-0.7,0.5-1.1,0.9-1.4c0.1,0,0.5-0.1,1.2-0.2
		c1.5-0.3,3.4-0.5,5.8-0.5c3.4,0.1,5.3,0.1,5.9,0c0.4,0,0.9,0.1,1.4,0.3C77.6,17,77.9,17.6,77.7,18.4z M79.8,19.4
		c-0.1-1,0.2-1.6,0.9-1.6c1.1,0,1.6,0.5,1.6,1.4c0.1,0.3-0.1,0.5-0.5,0.6c-0.5,0.2-0.7,0.4-0.8,0.5C80.4,20.5,79.9,20.1,79.8,19.4z
		 M87.5,20c0.7,5.7,1,9,1.1,9.9l1.1,14.2c0.1,0.3,0,0.8-0.2,1.4c-0.1,0.6-0.1,1.1-0.1,1.3c-0.1,1.4-0.1,2.5-0.1,3.1
		c0.1,1.2,0.6,2.1,1.5,2.8c0.1,0.1,0.2,0.2,0.3,0.5c0.1,0.2,0.1,0.3,0.1,0.3c-0.8,1.1-1.1,2.7-0.8,4.5c0.4,2.5,0.5,4,0.4,4.6
		c-0.2,1.2-0.3,2.8-0.2,4.6c0.1,2.1,0.2,3.6,0.2,4.7c0.1,4.8-0.9,8.9-3,12.6c-2,3.6-4.8,5.6-8.2,5.9c-2.2,0.3-5.1,0.9-8.7,1.8
		c-4.2,1.1-7,1.8-8.6,2.1c-6.1,1.1-10.3,1.8-12.8,2.1c-4.7,0.6-8.8,0.8-12,0.7c-4.2-0.1-6.9-0.1-8.3-0.2c-2.7-0.2-5.1-0.7-7.1-1.4
		c-1.1-0.4-1.9-1-2.4-1.9c-1.9-3.2-3.1-7.3-3.7-12.2c-0.5-4.1-1.4-12-2.4-23.8c-0.2-2.1-0.4-5.4-0.8-9.8c-0.3-3.9-0.6-7.1-1.1-9.7
		c-0.3-1-0.3-2.1,0-3.2c0.5-3.4,0.5-7.1,0-11c-0.2-1.4,0-2.6,0.6-3.5c0.5-0.9,1.5-1.6,2.9-2.1c0.6-0.3,1.6-0.6,2.9-1
		c1.1-0.3,2.1-0.8,2.8-1.2c0.2-0.2,0.4-0.3,0.6-0.2c2.7,0.2,6.4,0.2,11.1-0.1c5.2-0.3,8.9-0.5,11-0.4c1.5,0.1,2.5,0.1,3.2-0.1
		c2.1-0.7,4.6-1.3,7.5-1.8c1.7-0.3,4.3-0.7,7.8-1.2c6.8-1,13-0.9,18.7,0.6C84.7,13.9,87,16.3,87.5,20z M79.4,15.1
		c-6.5-1.2-12.7-1.3-18.3-0.2l-7,1.2c-2.8,0.4-4.4,0.9-4.8,1.4c-0.2,0.2-0.2,1.7-0.2,4.3c1,14.4,1.8,25.1,2.2,32.4
		c0.1,0.9,0.3,1.4,0.8,1.7c0.4,0.2,1,0.3,1.8,0.2c1.8-0.2,4.6-0.5,8.2-0.8c5.1-0.2,10.8-0.9,17.2-2.1c0.6-0.1,1.6-0.3,3-0.6
		c1.1-0.1,2.2,0,3.1,0.5c0.3,0.2,0.7,0.2,1.1,0c0.5-0.3,0.7-0.7,0.6-1.4v-6.2c0.1-1.8-0.1-4.4-0.3-7.6c-0.5-4.3-0.7-7-0.8-8.2
		c-0.1-1.7-0.5-4.6-1.4-8.8C84.1,17.5,82.3,15.7,79.4,15.1z M64.9,9.1c-1.7,0.4-2.7,0.6-2.8,0.6c-2.3,0.1-5.7,0.3-10.3,0.8
		c-4.5,0.5-7.9,0.7-10.2,0.7l-4.9,0.2c-1,0-1.5-0.4-1.4-1.2c0.1-0.7,0.5-1,1.2-0.9c3.8,0.1,8.2-0.1,13.3-0.5
		c0.1-0.1,4.4-0.5,13.1-1.3c0.4,0,1,0,1.7-0.1c0.2,0,0.4,0.2,0.7,0.8C65.4,8.7,65.3,9,64.9,9.1z M65.3,38.9c-0.8,0-1.2-0.4-1.2-1.2
		c0.1-0.6,0.4-0.9,1-0.8c0.8,0,2.8,0,5.8-0.1c2.4-0.1,4.4,0,6,0.2c-0.4,1.1-1.1,1.8-2.1,2c-1.4,0.2-3,0.3-4.8,0.2
		C67.9,39.2,66.3,39,65.3,38.9z M94,75.1c0.8-0.1,1.2,0.2,1.3,0.9v3.6c0.5,3.5-0.4,6-2.9,7.4c-0.3,0.2-0.6,0.3-0.8,0.4
		c-0.3,0.1-0.6,0-0.8-0.2c-0.4-0.5-0.2-1,0.5-1.4c1.6-0.9,2.3-2.7,2.1-5.3l-0.1-4.2C93.4,75.6,93.6,75.2,94,75.1z M84.1,55.7
		c-1.2-0.4-2.1-0.3-2.9,0.3l-2.5,2.5c-0.5,0.6-0.8,1-1,1.1c-0.4,0.3-0.8,0.2-1.2-0.2c-0.3-0.3-0.3-0.7-0.1-1
		c0.1-0.2,0.4-0.5,0.9-0.8c0.2-0.2,0.5-0.5,1-0.8c0.3-0.4,0.4-0.8,0.3-1.4l-9.1,1.4c-0.6,0.1-1.2,0.6-1.9,1.5
		c-1.3,1.6-3.3,3.7-5.9,6.3c-3,2.8-5,4.9-6.1,6.2c-0.7,0.9-1.1,1.7-1.2,2.4c-0.1,0.6,0,1.4,0.3,2.5c2.2-2.2,3.7-3.7,4.4-4.2
		c1.6-1.5,3.1-2.7,4.5-3.6c-2.7,3.6-4.9,6.3-6.8,8.1c-0.9,0.9-1.5,2-1.7,3.1c-0.2,0.9-0.1,2.1,0.3,3.6c0.9-0.4,2-1.4,3.4-2.9
		c1.3-1.4,2.5-2.3,3.5-2.8c0,0.4-0.2,0.9-0.8,1.7l-5.1,6.1c-1.1,1.2-1.1,2.4,0,3.6c0.9-0.8,2.2-2.1,4-3.9c1.6-1.5,3-2.6,4.4-3.3
		c-0.9,1.4-2.3,3.2-4.2,5.2c-2.3,2.4-3.8,4.1-4.5,5.1c-0.4,0.5-0.8,0.7-1.2,0.6c-0.5-0.1-0.8-0.5-0.9-1.2c-0.7-3.2-1.1-5.1-1.1-5.6
		c-0.1-3.1-0.6-7.3-1.4-12.7C50.8,66.7,50.2,62.5,50,60c-0.1-1.2-0.7-1.7-1.8-1.7l-5.3,0.2c-1.9,0.2-3.3,0.3-4.2,0.4
		c-1.7,0.1-3.1,0.4-4.2,0.7c-1,0.6-1.7,1-2.1,1.2c-0.8,0.3-1.6,0-2.3-0.9c-0.2-0.2-0.7-0.1-1.6,0.3c-0.8,0.4-1.6,0.5-2.4,0.5
		c-3.1-0.4-5.5-0.1-7.2,1.1c-0.4,0.4-0.9,0.3-1.2-0.2c-0.3-0.3-0.4-0.8-0.2-1.4c0.2-0.6,0.5-1.1,1.1-1.3c1.1-0.4,2.2-1.1,3.2-2.2
		c0.6-0.6,1.5-1.6,2.6-2.9c1.2-1.3,2.2-2.2,3.1-2.7c-0.3,1-1,2.2-2.1,3.6c-1.2,1.5-2,2.6-2.4,3.5c3.1,0.5,5.4-0.2,6.9-2.2
		c0.8-1.1,1.7-2.2,2.8-3.2c0.5-0.5,1.3-1.4,2.4-2.6c0.9-1,1.8-1.8,2.6-2.2c-0.5,1.2-1.5,2.8-3.1,4.8c-1.7,2.1-2.8,3.7-3.4,4.8
		c0.9,0.2,1.8,0.1,2.5-0.3c0.3-0.2,0.8-0.7,1.7-1.6l12.2-13c0.2-0.2,0.4-0.5,0.8-0.9c0.3-0.4,0.4-0.8,0.4-1.2L47.7,29
		c-0.5,0.2-1,0.5-1.5,1c-0.4,0.5-0.7,0.9-0.9,1c-0.7,0.6-1.4,0.7-1.9,0.1c-0.2-0.2-0.2-0.5-0.1-0.8c0.1-0.1,0.3-0.4,0.6-0.6l0.5-0.5
		c1.7-1.2,2.6-2.8,2.9-4.8c0.2-1.2,0.1-3.1-0.4-5.8c-1,0.7-2.3,2-3.8,3.7c-1.5,1.8-2.6,3-3.5,3.6c0.2-1.3,0.9-2.8,2-4.2
		c1.7-2,2.7-3.3,3-3.8c-1.5-0.2-3,0.6-4.2,2.2c-1.5,1.9-2.7,2.9-3.8,3.1c0.2-0.8,0.7-1.7,1.6-2.8c0.9-1.1,1.4-2,1.7-2.7
		c-1.7,0.4-3.8,0.6-6.4,0.6c-3.3,0-5.3,0-6.2,0.1c-1.1,0-2.2,0.4-3.3,1.1c-0.3,0.8-0.8,1.5-1.5,2.4l-7,7.9c-1.3,1.5-1.8,3.1-1.4,4.6
		c0.9-0.7,1.9-1.7,2.9-2.8c0.5-0.6,1.4-1.6,2.5-3c1.6-1.8,2.4-2.7,2.5-2.8c1-1.1,2.1-2,3.2-2.7c-0.3,0.9-0.7,1.8-1.3,2.5
		c-0.7,0.8-1.1,1.4-1.5,1.7L15.2,36c-1.4,1.6-1.5,3.1-0.4,4.4c0.3-0.3,1.5-1.7,3.6-4.2c1.5-1.8,3-3.2,4.4-4.2
		c-0.7,1.6-1.6,3.2-2.8,4.8c-1.4,1.8-2.5,3.1-3.2,3.9c-1,1.3-1.6,2.8-1.8,4.3c-0.1,1.3,0.1,2.9,0.5,4.9c0.5-0.5,1.7-1.7,3.6-3.8
		c1.4-1.5,2.7-2.6,3.8-3.2c-0.1,0.9-0.9,2.1-2.1,3.7l-4,5c-1.1,1.5-1.3,3.2-0.7,5.2c1-0.9,2.7-2.8,5.1-5.6c2-2.3,3.8-4,5.4-5
		c-1.5,2.3-2.6,4.1-3.5,5.2c-1.4,2-2.7,3.5-4,4.6c-1.4,1.2-2.3,2.6-2.6,4.2c-0.3,1.1-0.3,2.7,0,4.8c0.6,4.8,1.1,8.3,1.4,10.7
		c0.6,4.2,1.3,7.8,2.1,10.7c1.2,4.5,4,6.9,8.4,7.3c9.8,0.8,17.9,0.6,24.4-0.7c4-0.8,7.2-2.3,9.4-4.6c1.6-1.7,3.4-3,5.2-3.9
		c-0.4,1-1.3,2.1-2.5,3.4c-1.2,1.3-2,2.3-2.4,3.1c2.2-0.1,3.8-0.3,4.9-0.7c4.3-1.3,8.4-2.5,12.3-3.6c1.9-0.4,3.3-1,4.1-1.8
		c2.3-2.2,3.7-5.1,4.1-8.7c0.5-1.4,0.6-3.1,0.3-5.1c-0.3,0-0.9,0.4-1.9,1.1C85.6,73,84.8,73,84,72.5l3.6-4c0.6-0.7,0.9-1.5,0.9-2.4
		c0-0.5-0.1-1.4-0.2-2.5c-0.3-0.2-0.8-0.1-1.5,0.2c-0.6,0.3-1.2,0.3-1.7-0.2c1.3-1.2,2.1-2.4,2.4-3.6c0.4-1.5,0.2-3.3-0.8-5.2
		l-4,5.2c-0.4,0.4-0.8,0.5-1.2,0.1c-0.4-0.3-0.4-0.7,0-1.3c0.2-0.3,0.7-0.8,1.4-1.4C83.5,56.8,83.9,56.3,84.1,55.7z M72.6,69.3
		c-0.3-1.4-1-2.1-2-2.1c-0.6,0-1.1,0.3-1.6,1c-0.5,0.6-0.7,1.2-0.7,1.8c0.1,1.1,0.7,1.7,1.7,1.8c0.6,0,1.1-0.3,1.7-0.9
		C72.4,70.3,72.7,69.8,72.6,69.3z M77.2,75.9l0.6-0.3c0.6-0.1,1.1-0.1,1.2-0.1c0.4,0,0.6,0.3,0.8,0.8c0.2,1.3-0.3,1.9-1.5,1.9
		l-4.2,0.6c-0.9,0.2-3.6,0.5-8.1,0.9c-0.9,0.1-1.6,0-2.1-0.3c-0.4-0.4-0.6-0.8-0.5-1.2c0-0.4,0.3-0.7,0.9-1c0.3-0.2,0.6-0.2,1-0.2
		c0.3,0.1,0.7,0.2,1.2,0.4c0.8-0.2,2.5-0.4,5.3-0.6C74.1,76.9,75.9,76.5,77.2,75.9z M74.8,69.3c0,1.1-0.5,2.1-1.5,3.1
		c-1,0.8-2.2,1.3-3.6,1.3c-2.3,0.1-3.5-1.2-3.6-3.8c0-1.4,0.4-2.5,1.3-3.2c0.8-0.8,2-1.2,3.6-1.2c0.9,0,1.8,0.4,2.6,1.2
		C74.3,67.4,74.7,68.3,74.8,69.3z M87.8,76.5c-2.8,3.9-6.6,7.1-11.2,9.4c1.3-1.6,2.9-3.2,4.9-4.9c0.6-0.5,2.3-2,5.3-4.6
		C87,76.4,87.3,76.4,87.8,76.5z M52.3,58.2c-0.2,0.2-0.1,0.8,0.2,1.9c1.1-0.5,1.8-1.2,2.1-2.2C53.3,58,52.5,58.1,52.3,58.2z
		 M53,63.8c1.2-0.5,2.6-1.4,4-2.8c2.3-2.1,3.6-3.2,3.8-3.3c-2-0.1-3.8,0.5-5.4,1.8C53.6,60.8,52.9,62.2,53,63.8z M57.6,63.2
		c-1.2,1.2-2.6,2-4.2,2.3c-0.4,0-0.6,0.4-0.5,1.1c0.1,0.6,0.2,1.1,0.4,1.3c0.2,0.5,0.6,0.9,1.1,1.2c1.4-1.2,3.4-3.2,6.1-5.9
		c2.4-2.3,4.7-4.3,6.6-5.9c-2.8-0.7-5,0-6.6,2C58.6,61.8,57.6,63.1,57.6,63.2z M71.4,82c1.4,0.1,2.2,0.8,2.2,2
		c0,0.8-0.4,1.6-1.1,2.4c-0.8,0.7-1.5,1.1-2.1,1.1s-1.2-0.3-1.8-0.8c-0.6-0.6-0.9-1.1-0.8-1.6c0-0.7,0.4-1.4,1.2-2.1
		C69.7,82.3,70.6,82,71.4,82z M72.5,96.6c-0.9-0.1-1.4-0.6-1.4-1.3c0-0.7,0.4-1.2,1.4-1.2c1.8,0,4.9-0.4,9.1-1.2
		c1.9-0.3,3.2-0.9,3.8-1.7c0.7-0.9,1.4-1,2.2-0.2c0.4,0.4,0.4,0.7,0.2,1.1c0,0.1-0.4,0.4-0.9,0.8c-0.8,0.6-2.3,1.2-4.6,1.9
		c-0.9,0.3-2.5,0.5-4.8,0.6C75.3,95.6,73.7,96,72.5,96.6z M20.5,22.3c1.1-1.1,2.2-2,3.1-2.7c-2.1-0.5-4.3,0.2-6.4,1.9
		c-2.2,1.8-3.4,3.9-3.5,6.3c0,0.3,0.4,0.4,1.2,0.3c1.4-1.6,2.2-2.5,2.4-2.7C18,24.8,19.1,23.8,20.5,22.3z M30.6,31.3
		c1.1-0.3,1.7,0.2,1.9,1.5l0.2,3.2c0,1.5,0.8,2.2,2.2,1.8l2.8-0.2c0.8,0,1.2,0.3,1.2,1c0.1,0.4,0.1,0.8-0.1,1
		c-0.2,0.2-0.5,0.4-0.9,0.4c-0.7,0.1-2.3,0.2-4.9,0.3c-0.1,0.7-0.1,1.5,0,2.4c0.3,1.1,0.5,1.9,0.6,2.4c0.4,1.3,0.1,2-0.8,2.3
		c-0.6,0.1-1.1,0-1.4-0.5c-0.2-0.3-0.4-0.8-0.5-1.6c-0.2-2.3-0.6-3.7-1-4.1c-0.4-0.4-1.8-0.6-4.1-0.6L24,40.4
		c-0.9-0.1-1.4-0.5-1.4-1.2c0.2-1,0.8-1.4,1.8-1.1c1.4,0.3,2.3,0.5,2.8,0.3c0.3-0.1,0.8-0.1,1.6-0.1c0.7,0,1.2-0.1,1.6-0.4
		c0.2-1.1,0-2.7-0.8-4.8C29.4,32.3,29.6,31.6,30.6,31.3z M48.5,50.4c-2.4,2.1-4.2,4.1-5.3,5.8c3.3,0.2,5.2,0,5.7-0.5
		c0.5-0.4,0.5-2.1,0.1-5L48.5,50.4z M48.9,46.4c0.2-0.8,0.1-1.9-0.2-3.2L36.4,56.8c1.8,0.5,3,0.5,3.5-0.1c0.8-1,2.1-2.2,3.8-3.8
		c1.9-1.7,3.2-2.9,4-3.8C48.3,48.2,48.7,47.3,48.9,46.4z M42,75c0,0.7-0.3,1.1-0.9,1.3c-0.4,0.2-0.9,0.6-1.4,1.2
		c-0.4,0.6-0.8,1.1-1,1.4c-0.7,1-1,1.7-0.9,2.2s0.6,1,1.6,1.5l1.5,0.3c0.7,0.1,1,0.4,1,0.8c0,0.6-0.4,0.9-1.1,1.2
		c-1.5,0.3-2.7-0.1-3.6-1.1c-1-1-2-0.9-3,0.3l-2.9,3.6c-0.6,0.6-1.1,0.7-1.5,0.2c-0.5-0.6-0.5-1.1,0-1.6l3-3.1
		c0.7-0.8,1.1-1.4,1-1.8c0-0.4-0.4-0.9-1.2-1.6c-1.3-1.1-2.6-1.8-3.7-2.2C28,77.4,27.7,76.8,28,76s1-1,2.1-0.6
		c1.5,0.7,2.9,1.6,4.2,2.6c0.9,0.7,1.5,1,1.8,0.9c0.3,0,0.8-0.5,1.4-1.5l2.4-3.5c0.4-0.6,1-0.6,1.7-0.2C41.8,74,42,74.5,42,75z
		 M11.3,86.5c-0.1,0.4-0.4,0.7-0.9,0.8c-0.6,0.2-1.1,0-1.4-0.4c-0.2-0.3-0.4-0.8-0.4-1.3c0-0.6-0.2-2.1-0.7-4.4
		c-0.3-1.8-0.3-3.3-0.1-4.4c0.2-2,0.1-3.8-0.3-5.3c-0.3-0.9-0.4-2.3-0.2-4c0.2-1.9,0.2-3.2-0.1-4c-0.1-0.6,0.1-1,0.8-1.2
		c0.6-0.1,1,0.2,1.2,1l0.1,0.3c-0.2,1.6-0.2,3.8,0.2,6.8c0.5,3,0.6,5.3,0.4,6.7c-0.1,1.2,0,2.6,0.2,4.1c0.3,1.8,0.6,3.1,0.8,3.9
		C11.2,85.9,11.3,86.4,11.3,86.5z M13.3,96.6c-1.1-1.3-1.7-2.4-2-3.3c-0.2-0.8,0.1-1.4,0.9-1.7c0.7-0.2,1.1,0.1,1.3,0.9
		c0.3,1.5,1.5,2.9,3.6,4C15.8,97.9,14.5,97.9,13.3,96.6z"/>
</g>
</svg>
